<?xml version="1.0" encoding="UTF-8"?>
<svg id="Layer_1" xmlns="http://www.w3.org/2000/svg" version="1.1" viewBox="0 0 985.28 1346.57">
  <!-- Generator: Adobe Illustrator 29.8.1, SVG Export Plug-In . SVG Version: 2.1.1 Build 2)  -->
  <defs>
    <style>
      .st0 {
        opacity: .3;
      }

      .st1 {
        fill: #b10702;
      }
    </style>
  </defs>
  <g class="st0">
    <path class="st1" d="M708.75,782.44l-365.95,239.15,94.35,224.37c-118.8-47.31-159.68-135.01-199.24-249.03l386.49-245.7c9.51-39.36-14.14-249.56-28.93-292.72-14.58-42.57-269.67-385.97-164.24-408.68,27.26,2.65,40.14,38.22,53.41,58.48,39.68,60.57,182.21,285.43,196.01,339.79,8.73,34.41,36.56,319.85,28.1,334.34Z"/>
    <path class="st1" d="M169.56,0l322.65,387.33c31.41,83.73,98.78,194.18,26.05,272.75-14.73.14-83.62-204.41-101.11-235.07C365.86,335.07,144.37,130.38,149.57,43.52c1.15-19.15,2.86-32.1,20-43.52Z"/>
    <path class="st1" d="M412.17,710.13c-19.65,18.15-21.32-6.06-27.74-16.01-40.55-62.77-63.72-152.96-109.16-214.44C203.78,382.96,34.49,326.9,51.07,186.9c22.92-2.93,39.03,12.93,55.8,25.06,43.38,31.37,219.39,196.2,248.63,237.33,34.24,48.16,105.61,215.64,56.67,260.84Z"/>
    <path class="st1" d="M188,722.7c13.01,13.29-93.02,195.17-98.81,231.18-14.18,88.27,24.25,265.52,33.54,363.79,5.99,63.39-41.8,6.23-57.25-17.65C31.92,1248.13-5.86,1014.83,1.35,954.38c7.66-64.23,106.65-228.8,186.65-231.68Z"/>
    <path class="st1" d="M761.39,610.46c-50.23-97.92-4.49-231.62,112-249.3,32.01-34.45-156.81-88.58-186.79-37.26,1.45-216.73,240.57-42.82,298.67,56.07-50.22,30.74-98.76,20.09-143.64,67.94-47.08,50.2-36.85,116.81-80.25,162.55Z"/>
    <path class="st1" d="M196.36,490.05c17.47,17.28,104.57,147.97,110.46,169.85,9.16,34.03,17.24,87.19-12.84,112.33-15.8-.16-122.57-183.09-149.25-211.85C92.7,504.31-10.47,482.18.86,392.49c1.64-12.96-2.73-27.05,18.79-18.61,9.84,3.86,169.19,108.73,176.71,116.16Z"/>
    <circle class="st1" cx="819.65" cy="342.65" r="13.98"/>
  </g>
</svg>